<svg width="26" height="26" viewBox="0 0 26 26" fill="none" xmlns="http://www.w3.org/2000/svg">
<path d="M25.4 7.80001V5.40001H21.9234C21.6484 4.82033 21.1797 4.35157 20.6 4.07657V0.600006H18.2V3.80001H14.2V0.600006H11.8V3.80001H7.80001V0.600006H5.40001V4.07189C4.81721 4.34845 4.34845 4.81721 4.07189 5.40001H0.600006V7.80001H3.80001V11.8H0.600006V14.2H3.80001V18.2H0.600006V20.6H4.07189C4.34845 21.1828 4.81721 21.6516 5.40001 21.9281V25.4H7.80001V22.2H11.8V25.4H14.2V22.2H18.2V25.4H20.6V21.9234C21.1797 21.6484 21.6484 21.1797 21.9234 20.6H25.4V18.2H22.2V14.2H25.4V11.8H22.2V7.80001H25.4ZM19.8 11.8V19.4C19.8 19.5063 19.7578 19.6078 19.6828 19.6828C19.6078 19.7578 19.5063 19.8 19.4 19.8H6.60001C6.37969 19.8 6.20001 19.6203 6.20001 19.4V6.60001C6.20001 6.37969 6.37969 6.20001 6.60001 6.20001H19.4C19.5063 6.20001 19.6078 6.24219 19.6828 6.31719C19.7578 6.39219 19.8 6.49376 19.8 6.60001V11.8Z" fill="white"/>
</svg>
