<svg width="30" height="36" viewBox="0 0 30 36" fill="none" xmlns="http://www.w3.org/2000/svg">
<path fill-rule="evenodd" clip-rule="evenodd" d="M9.58747 0.308365C9.68426 0.311646 9.78106 0.329693 9.87129 0.365787C9.96153 0.40024 10.0452 0.45274 10.119 0.515084C10.1929 0.579067 10.2536 0.656179 10.3011 0.739852C10.3487 0.825162 10.3799 0.917041 10.3963 1.01383C10.4111 1.10899 10.4111 1.20743 10.393 1.30258C10.375 1.39774 10.3405 1.48961 10.2913 1.57329C10.1929 1.74063 10.0354 1.87188 9.85159 1.93751C5.17741 3.69789 1.84849 8.21147 1.84849 13.5123C1.84849 17.1036 3.37754 20.3276 5.81716 22.5897C5.91723 22.6833 5.99435 22.8014 6.04028 22.931C6.08458 23.0606 6.0977 23.2001 6.07637 23.3362L5.00995 30.1663L18.1072 33.5853L18.7356 28.7717C18.7504 28.6569 18.7897 28.5436 18.8504 28.4436C18.9111 28.3435 18.9932 28.2565 19.0883 28.1909C19.1835 28.1237 19.2934 28.0777 19.4083 28.0564C19.5231 28.0334 19.6412 28.0367 19.7561 28.0613L23.6722 28.9538L24.3433 24.8555C24.3597 24.7587 24.3925 24.6636 24.4417 24.5783C24.4909 24.493 24.5533 24.4158 24.6287 24.3519C24.7042 24.2879 24.7912 24.237 24.883 24.2042C24.9749 24.1698 25.075 24.1533 25.1734 24.1533H27.9608L26.3842 16.6656C26.3711 16.6 26.3645 16.5311 26.3662 16.4638L26.5105 12.1605C26.0167 7.61775 23.062 3.81465 19.0081 2.10819C18.9047 2.06718 18.8112 2.00484 18.7324 1.92609C18.6537 1.84734 18.5897 1.75382 18.547 1.6521C18.5044 1.55038 18.4831 1.43882 18.4831 1.32726C18.4831 1.21569 18.506 1.10578 18.5487 1.00241C18.5913 0.900694 18.6553 0.807181 18.7341 0.728431C18.8128 0.651324 18.908 0.588979 19.0114 0.547962C19.1147 0.506946 19.2263 0.487259 19.3362 0.488901C19.4478 0.490542 19.5577 0.515151 19.6594 0.559449C24.2844 2.50686 27.6461 6.85441 28.1875 12.0406C28.1908 12.0783 28.1924 12.1177 28.1908 12.1554L28.0464 16.4176L29.815 24.8193C29.8412 24.9407 29.838 25.0686 29.8101 25.19C29.7805 25.3114 29.7248 25.4246 29.646 25.5214C29.5673 25.6182 29.4672 25.697 29.3556 25.7511C29.2424 25.8053 29.1194 25.8332 28.9947 25.8332H25.8857L25.1868 30.1104C25.1687 30.2236 25.1261 30.3319 25.0654 30.4287C25.003 30.5255 24.9226 30.6075 24.8275 30.6715C24.7323 30.7355 24.624 30.7798 24.5125 30.8011C24.4009 30.8225 24.2828 30.8192 24.1712 30.7946L20.283 29.9086L19.6513 34.7516C19.6366 34.8698 19.5955 34.983 19.5332 35.0847C19.4709 35.1864 19.3872 35.2734 19.2887 35.339C19.1903 35.4046 19.0771 35.4506 18.9606 35.4702C18.8441 35.4899 18.7227 35.485 18.6079 35.4555L3.8537 31.6033C3.75362 31.577 3.66011 31.5327 3.57643 31.472C3.49276 31.4113 3.42058 31.3358 3.36479 31.2505C3.30901 31.1652 3.26799 31.0684 3.24667 30.9667C3.22534 30.8666 3.22206 30.7616 3.23846 30.6599L4.35575 23.5115C1.77833 20.9636 0.175446 17.4215 0.175446 13.5151C0.175446 7.51036 3.95217 2.3704 9.26635 0.36868C9.37135 0.327665 9.48291 0.307977 9.59447 0.311258L9.58747 0.308365Z" fill="white"/>
</svg>
