<svg width="40" height="38" viewBox="0 0 40 38" fill="none" xmlns="http://www.w3.org/2000/svg">
<path d="M12 25.4796C12.1891 25.6687 12.2937 25.9265 12.2922 26.1937C12.2906 26.4609 12.1812 26.7156 11.9906 26.903C11.7984 27.089 11.5406 27.1905 11.2734 27.1859C11.0062 27.1812 10.7515 27.0702 10.5687 26.8765C9.16406 25.4406 8.10154 23.7046 7.46406 21.8001C7.37812 21.547 7.39531 21.2704 7.51562 21.0313C7.63437 20.7907 7.84375 20.6094 8.09842 20.5266C8.35155 20.4423 8.62966 20.4641 8.86718 20.586C9.10468 20.7095 9.28438 20.9204 9.36406 21.1767C9.90626 22.7907 10.8078 24.2626 12 25.4799L12 25.4796ZM31.9 20.5232C31.6484 20.4388 31.3734 20.4591 31.1359 20.5779C30.8984 20.6982 30.7187 20.9076 30.6359 21.1591C30.0953 22.781 29.1937 24.2576 28 25.4795C27.8109 25.6686 27.7062 25.9264 27.7078 26.1936C27.7094 26.4608 27.8187 26.7155 28.0094 26.903C28.2016 27.0889 28.4594 27.1905 28.7266 27.1858C28.9938 27.1811 29.2484 27.0702 29.4312 26.8764C30.8375 25.4405 31.8984 23.7045 32.5359 21.8C32.6234 21.5469 32.6047 21.2688 32.4859 21.0281C32.3656 20.7891 32.1547 20.6062 31.9 20.5234L31.9 20.5232ZM17.5 6.764C19.1594 6.38588 20.8812 6.38588 22.5408 6.764C22.8017 6.83431 23.0814 6.79369 23.3127 6.65463C23.5455 6.514 23.7111 6.28587 23.772 6.02183C23.833 5.75776 23.783 5.47963 23.6361 5.25307C23.4877 5.02494 23.2548 4.86713 22.9877 4.81555C21.0361 4.37023 19.008 4.37023 17.0565 4.81555C16.5689 4.97492 16.2815 5.47803 16.3908 5.97963C16.5002 6.48119 16.9705 6.81715 17.4799 6.75931L17.5 6.764ZM7.96879 0.951603C10.2719 0.940665 12.15 2.79692 12.1688 5.1C12.1688 7.42032 10.2876 9.3 7.96879 9.3C5.64847 9.3 3.76879 7.42032 3.76879 5.1C3.78598 2.79688 5.66411 0.940803 7.96879 0.951603ZM7.96879 2.9516C7.10471 2.97348 6.33755 3.5094 6.02035 4.31408C5.70473 5.1172 5.9016 6.03284 6.51879 6.63596C7.13755 7.24064 8.05787 7.41408 8.85315 7.07972C9.65003 6.74379 10.1672 5.96408 10.1688 5.10004C10.1532 3.90004 9.16879 2.93912 7.96879 2.9516ZM8.97659 13.7108L10.9157 11.7999H11.5235C11.9985 11.7936 12.4563 11.9764 12.7954 12.3061C13.136 12.6374 13.3297 13.0889 13.336 13.5639V15.8561C13.336 16.4077 13.7844 16.8561 14.336 16.8561C14.8891 16.8561 15.336 16.4077 15.336 15.8561V13.5639C15.3204 11.4733 13.6157 9.78892 11.5235 9.79984H10.5079C10.2454 9.79984 9.99539 9.90453 9.80787 10.0873L7.96723 11.8951L6.12659 10.0873H6.12816C5.94222 9.90453 5.69064 9.79984 5.42816 9.79984H4.40004C2.31412 9.79516 0.615677 11.478 0.600037 13.5639V15.8561C0.600037 16.4077 1.04848 16.8561 1.60004 16.8561C2.1516 16.8561 2.60004 16.4077 2.60004 15.8561V13.5639C2.61254 12.5811 3.41724 11.7936 4.40004 11.7998H5.00784L6.9516 13.7123C7.51568 14.2623 8.41568 14.2608 8.9766 13.7076L8.97659 13.7108ZM36.2314 5.0952C36.2314 7.41552 34.3517 9.2952 32.0314 9.2952C29.7126 9.2952 27.8314 7.41552 27.8314 5.0952C27.8314 2.77644 29.7126 0.895203 32.0314 0.895203C34.3517 0.895203 36.2314 2.77644 36.2314 5.0952ZM34.2314 5.0952C34.2533 4.20144 33.7314 3.38428 32.9111 3.02644C32.0908 2.67019 31.1361 2.84519 30.4954 3.4702C29.8564 4.0952 29.6579 5.0452 29.9954 5.87332C30.3329 6.70144 31.1376 7.24364 32.0314 7.24364C33.2329 7.25771 34.2173 6.29676 34.2313 5.0952H34.2314ZM35.6002 9.8H34.572C34.3095 9.8 34.058 9.90469 33.872 10.0875L32.0314 11.8953L30.1908 10.0875H30.1923C30.0048 9.90469 29.7548 9.8 29.4923 9.8H28.4767C26.3845 9.78907 24.6798 11.4734 24.6642 13.5641V15.8563C24.6642 16.4078 25.1111 16.8563 25.6642 16.8563C26.2158 16.8563 26.6642 16.4078 26.6642 15.8563V13.5641C26.6704 13.0891 26.8642 12.6375 27.2048 12.3063C27.5439 11.9766 28.0017 11.7938 28.4767 11.8H29.0845L31.0283 13.7078C31.5876 14.2438 32.4689 14.2438 33.0283 13.7078L34.9798 11.8H35.6002C36.0752 11.7938 36.5314 11.9766 36.872 12.3063C37.2111 12.6375 37.4064 13.0891 37.4127 13.5641V15.8563C37.4127 16.4078 37.8596 16.8563 38.4127 16.8563C38.9642 16.8563 39.4127 16.4078 39.4127 15.8563V13.5641C39.397 11.4734 37.6908 9.78908 35.6002 9.8H35.6002ZM15.8002 25.292C15.7798 23.5889 16.7892 22.0404 18.3564 21.3748C19.9236 20.7076 21.7392 21.0545 22.9516 22.2514C24.1625 23.4482 24.5313 25.2592 23.8844 26.8342C23.2375 28.4107 21.7032 29.4404 20 29.4404C17.6969 29.4513 15.8172 27.5951 15.8 25.292H15.8002ZM17.8002 25.292C17.7767 26.1858 18.2986 27.0061 19.1189 27.3639C19.9392 27.7217 20.8939 27.5483 21.5346 26.9232C22.1752 26.2982 22.3752 25.3482 22.0377 24.5201C21.7002 23.6904 20.8955 23.1482 20.0002 23.1482C18.8017 23.1342 17.8174 24.0936 17.8002 25.292ZM23.5566 29.9952H22.5409C22.2784 29.9968 22.0268 30.0999 21.8409 30.2843L20.0003 32.0921L18.1596 30.2843C17.9737 30.0999 17.7221 29.9968 17.4596 29.9952H16.444C14.3534 29.9843 12.6471 31.6686 12.6315 33.7593V36.0515C12.6315 36.6046 13.08 37.0515 13.6315 37.0515C14.1846 37.0515 14.6315 36.6046 14.6315 36.0515V33.7593C14.6393 33.2858 14.8331 32.8327 15.1722 32.503C15.5128 32.1718 15.9706 31.989 16.444 31.9952H17.0518L18.9956 33.9077C19.555 34.4436 20.4378 34.4436 20.9956 33.9077L22.9394 31.9999H23.5487C24.0222 31.9937 24.48 32.1765 24.819 32.5062C25.1597 32.8374 25.3534 33.289 25.3597 33.764V36.0562C25.3597 36.6077 25.8081 37.0562 26.3597 37.0562C26.9128 37.0562 27.3597 36.6077 27.3597 36.0562V33.7593C27.3456 31.6718 25.644 29.989 23.5566 29.9952Z" fill="white"/>
</svg>
